<svg xmlns="http://www.w3.org/2000/svg" fill="none" viewBox="0 0 172 172">
  <g clip-path="url(#a)" transform="translate(-1.4 -1.4)">
    <path fill="#fff" d="m4.2 172.4 82.2-84.2c.5-.6.6-1.4.2-2-5-7-14.2-8.2-17.7-12.9-10-13.8-12.7-21.7-17-21.2-.3 0-.6.2-.8.4L21.4 82.9c-17 17.5-19.5 56.1-20 88.4 0 1.5 1.8 2.2 2.8 1.1z"/>
    <path fill="#fff" d="M172.4 170.4 88.2 88c-.6-.5-1.4-.6-2-.1-7 5-8.2 14.2-12.9 17.6-13.8 10.1-21.7 12.7-21.2 17 0 .4.2.6.4.8L82.9 153c17.5 17.1 56.1 19.6 88.4 20 1.5 0 2.2-1.7 1.1-2.7z"/>
    <path fill="#f9f9f9" fill-rule="evenodd" d="M83 153.1c-9.6-9.3-14-27.8 4.3-65.8C57.5 100.6 47 118 52.2 123Z" clip-rule="evenodd"/>
    <path fill="#fff" d="M170.4 2.1 88 86.4c-.5.5-.6 1.3-.1 2 5 6.9 14.2 8.1 17.6 12.8 10.1 13.9 12.7 21.8 17 21.3.4 0 .6-.2.8-.4L153 91.6c17.1-17.5 19.6-56 20-88.4 0-1.4-1.7-2.1-2.7-1.1z"/>
    <path fill="#f9f9f9" fill-rule="evenodd" d="M153.1 91.6c-9.3 9.6-27.8 14-65.8-4.3 13.3 29.8 30.8 40.2 35.8 35z" clip-rule="evenodd"/>
    <path fill="#fff" d="m2.1 4.2 84.3 82.2c.5.5 1.3.6 2 .2 6.9-5 8.1-14.2 12.8-17.7 13.9-10 21.8-12.7 21.3-17 0-.3-.2-.6-.4-.8L91.6 21.4c-17.5-17-56-19.5-88.4-20a1.6 1.6 0 0 0-1.1 2.8Z"/>
    <path fill="#f9f9f9" fill-rule="evenodd" d="M91.6 21.4c9.6 9.3 14 27.8-4.3 65.9 29.8-13.3 40.2-30.9 35-35.9Z" clip-rule="evenodd"/>
    <path fill="#f9f9f9" fill-rule="evenodd" d="M21.4 83c9.3-9.6 27.8-14 65.9 4.3C74 57.5 56.4 47 51.4 52.2Z" clip-rule="evenodd"/>
  </g>
  <defs>
    <clipPath id="a">
      <path fill="#fff" d="M0 0h175v270H0z"/>
    </clipPath>
  </defs>
</svg>